<?xml version="1.0" encoding="utf-8"?>
<svg width="1000px" height="1000px" viewBox="0 0 1000 1000" version="1.1" xmlns:xlink="http://www.w3.org/1999/xlink" xmlns="http://www.w3.org/2000/svg">
  <defs>
    <filter filterUnits="userSpaceOnUse" color-interpolation-filters="sRGB" id="filter_1">
      <feFlood flood-opacity="0" result="BackgroundImageFix" />
      <feColorMatrix in="SourceAlpha" type="matrix" values="0 0 0 0 0 0 0 0 0 0 0 0 0 0 0 0 0 0 127 0" />
      <feOffset dx="0" dy="0" />
      <feGaussianBlur stdDeviation="5" />
      <feColorMatrix type="matrix" values="0 0 0 0 0.0627451 0 0 0 0 0.0627451 0 0 0 0 0.08235294 0 0 0 0.6784314 0" />
      <feBlend mode="normal" in2="BackgroundImageFix" result="effect0_dropShadow" />
      <feBlend mode="normal" in="SourceGraphic" in2="effect0_dropShadow" result="shape" />
    </filter>
    <path d="M0 237.704C0 106.424 106.424 0 237.704 0C368.984 0 475.407 106.424 475.407 237.704C475.407 368.984 368.984 475.407 237.704 475.407C106.424 475.407 0 368.984 0 237.704Z" id="path_1" />
    <rect width="1000" height="1000" id="artboard_1" />
    <clipPath id="clip_1">
      <use xlink:href="#artboard_1" clip-rule="evenodd" />
    </clipPath>
    <clipPath id="mask_1">
      <use xlink:href="#path_1" />
    </clipPath>
  </defs>
  <g id="astro-light" clip-path="url(#clip_1)">
    <use xlink:href="#artboard_1" stroke="none" fill="#FFFFFF" fill-opacity="0" />
    <g id="Groupes" transform="translate(29.876343 0)" artboard="17c11ca8-9588-4de2-a50e-728e025e1180">
      <path d="M0 1000L278.052 1000L940.806 0L0 1000Z" id="Vecteur" fill="#404045" fill-rule="evenodd" stroke="none" />
      <g id="Vecteur-2-Masquer" transform="translate(232.6994 262.2964)">
        <path d="M0 237.704C0 106.424 106.424 0 237.704 0C368.984 0 475.407 106.424 475.407 237.704C475.407 368.984 368.984 475.407 237.704 475.407C106.424 475.407 0 368.984 0 237.704Z" id="Masquer" fill="#404045" fill-rule="evenodd" stroke="none" />
        <g clip-path="url(#mask_1)">
          <path d="M-232.699 737.703L45.3526 737.703L708.107 -262.297L-232.699 737.703Z" id="Vecteur-2" fill="#252530" fill-rule="evenodd" stroke="none" filter="url(#filter_1)" />
        </g>
      </g>
    </g>
  </g>
</svg>